<?xml version="1.0" encoding="UTF-8" ?>
<!DOCTYPE svg PUBLIC "-//W3C//DTD SVG 1.1//EN" "http://www.w3.org/Graphics/SVG/1.1/DTD/svg11.dtd">
<svg width="512pt" height="512pt" viewBox="0 0 512 512" version="1.1" xmlns="http://www.w3.org/2000/svg">
<path fill="#ffffff" d=" M 0.00 0.00 L 512.00 0.00 L 512.00 512.00 L 0.00 512.00 L 0.00 0.00 Z" />
<path fill="#e8e8e8" d=" M 126.09 75.99 C 133.16 73.68 140.67 73.74 148.02 73.61 C 211.67 73.62 275.32 73.60 338.96 73.61 C 352.29 73.83 365.67 73.04 378.96 74.31 C 392.45 76.44 405.86 82.75 414.67 93.38 C 410.35 98.05 403.62 95.51 398.34 94.38 C 398.38 95.72 398.44 97.06 398.49 98.40 C 397.55 98.63 396.62 98.85 395.69 99.08 C 396.98 99.55 398.27 100.03 399.57 100.50 C 396.45 101.89 393.68 103.95 390.59 105.39 C 388.85 105.31 387.17 104.56 385.43 104.69 C 382.66 105.23 379.92 106.42 377.04 105.89 C 368.40 104.90 359.75 103.59 351.02 103.95 C 321.66 103.90 292.30 104.08 262.95 103.89 C 260.08 103.88 257.25 104.27 254.43 104.65 C 249.80 104.90 245.17 104.84 240.55 104.60 C 234.08 103.52 227.51 104.16 220.99 103.95 C 199.67 103.88 178.35 104.04 157.02 103.89 C 149.65 104.05 142.36 105.25 135.04 105.97 C 132.05 106.37 129.21 105.10 126.28 104.82 C 124.74 105.03 123.35 105.78 121.91 106.32 C 119.07 104.46 115.72 103.29 113.33 100.79 C 114.07 100.30 114.82 99.80 115.56 99.31 C 114.60 97.99 113.74 96.60 112.94 95.17 C 108.01 95.49 101.97 97.71 98.17 93.31 C 105.21 84.65 115.55 79.20 126.09 75.99 Z" />
<path fill="#e3e3e3" d=" M 97.96 93.14 L 98.17 93.31 C 101.97 97.71 108.01 95.49 112.94 95.17 C 113.74 96.60 114.60 97.99 115.56 99.31 C 114.82 99.80 114.07 100.30 113.33 100.79 C 115.72 103.29 119.07 104.46 121.91 106.32 C 123.35 105.78 124.74 105.03 126.28 104.82 C 129.21 105.10 132.05 106.37 135.04 105.97 C 142.36 105.25 149.65 104.05 157.02 103.89 C 178.35 104.04 199.67 103.88 220.99 103.95 C 227.51 104.16 234.08 103.52 240.55 104.60 C 236.77 105.32 232.92 105.69 229.17 106.60 C 213.26 109.84 197.53 117.36 187.55 130.55 C 183.68 136.15 180.36 142.13 177.54 148.33 C 166.13 148.10 154.71 148.11 143.30 148.29 C 143.18 162.18 143.05 176.06 142.99 189.95 C 142.96 192.03 142.75 194.10 142.47 196.16 C 140.98 185.17 143.01 173.93 140.73 163.01 C 140.13 160.09 140.18 157.10 140.33 154.15 C 131.05 154.16 121.77 153.98 112.50 154.27 C 112.16 156.46 112.23 158.87 110.78 160.70 C 106.52 166.90 107.20 174.79 104.86 181.68 C 103.35 186.10 104.92 190.93 103.28 195.33 C 101.24 201.32 101.61 207.73 100.78 213.93 C 99.69 222.25 100.25 230.65 100.14 239.02 C 100.33 247.67 99.22 256.61 102.16 264.95 C 104.03 269.72 103.95 275.02 106.15 279.69 C 107.63 283.82 110.35 287.35 113.28 290.56 C 121.98 291.26 130.79 290.80 139.53 290.75 C 141.02 286.20 141.72 281.47 142.50 276.77 C 142.82 279.11 143.11 281.47 143.40 283.83 C 156.23 284.49 169.09 283.68 181.93 284.07 C 185.63 284.07 189.63 284.57 192.91 282.48 C 194.10 285.75 195.22 289.04 196.29 292.35 C 198.14 297.77 199.65 303.30 201.02 308.86 C 201.62 311.50 202.19 314.15 202.66 316.82 C 202.39 317.55 201.85 319.02 201.58 319.75 C 182.18 319.88 162.78 319.97 143.38 319.73 C 143.22 316.11 142.98 312.50 142.67 308.90 C 141.76 312.53 140.78 316.14 139.66 319.72 C 130.87 319.85 122.02 320.18 113.26 319.60 C 110.17 316.86 107.29 313.82 104.63 310.67 C 100.90 300.63 99.11 290.02 96.58 279.65 C 94.64 268.55 92.85 257.32 93.15 246.01 C 93.19 238.33 93.10 230.64 93.13 222.95 C 93.13 217.28 94.35 211.68 94.17 206.00 C 94.08 201.32 94.29 196.63 95.04 192.01 C 96.55 183.62 95.83 175.00 97.65 166.64 C 98.73 162.11 98.59 157.46 98.88 152.86 C 99.95 145.79 99.85 138.34 97.47 131.55 C 95.10 125.06 87.27 124.44 82.88 119.89 C 85.51 109.88 90.87 100.64 97.96 93.14 Z" />
<path fill="#e4e4e4" d=" M 414.67 93.38 L 415.04 93.06 C 419.05 98.10 423.47 103.10 425.61 109.29 C 422.16 110.47 418.72 111.99 415.03 112.17 C 411.86 112.05 408.81 111.08 405.74 110.40 C 404.97 111.90 404.22 113.40 403.48 114.91 C 405.56 116.23 406.65 118.15 406.04 120.65 C 405.00 120.67 403.97 120.70 402.94 120.72 C 403.75 121.29 404.57 121.84 405.39 122.42 C 405.15 125.22 405.38 128.08 404.80 130.84 C 402.40 137.25 406.51 143.63 407.08 150.01 C 407.44 156.53 410.09 162.57 411.01 168.97 C 412.10 179.00 414.53 188.92 414.29 199.06 C 414.81 209.70 416.70 220.29 416.19 230.98 C 415.84 241.28 417.31 251.76 414.89 261.90 C 414.08 266.25 414.36 270.75 413.18 275.05 C 411.57 282.23 408.35 288.88 405.85 295.77 C 403.77 299.33 400.76 303.86 396.04 303.31 C 377.36 303.25 358.68 303.19 340.00 303.30 C 337.66 303.31 335.38 302.78 333.13 302.24 C 335.64 296.46 337.90 290.56 339.91 284.59 C 341.13 280.96 342.21 277.29 343.27 273.62 C 343.29 275.69 343.43 277.76 343.54 279.83 C 361.03 280.29 378.53 279.81 396.02 280.09 C 401.04 280.88 404.02 275.77 405.54 271.76 C 407.50 264.00 409.40 256.08 409.10 248.01 C 408.86 238.03 409.43 228.03 408.72 218.07 C 407.19 206.01 407.52 193.51 403.21 181.98 C 402.60 181.15 401.95 180.36 401.26 179.61 C 401.00 177.81 400.78 176.00 400.57 174.20 C 386.40 173.63 372.21 174.28 358.03 174.01 C 351.16 174.24 344.22 173.26 337.44 174.70 C 334.87 168.35 332.08 162.09 328.88 156.04 C 323.84 146.53 318.06 137.26 310.32 129.69 C 305.37 124.64 299.56 120.56 293.61 116.80 C 293.45 116.12 293.12 114.77 292.96 114.09 C 285.93 111.01 278.66 108.48 271.61 105.44 C 271.39 106.03 270.95 107.21 270.72 107.80 C 268.04 106.95 265.25 106.47 262.46 106.10 C 259.77 105.72 257.09 105.18 254.43 104.65 C 257.25 104.27 260.08 103.88 262.95 103.89 C 292.30 104.08 321.66 103.90 351.02 103.95 C 359.75 103.59 368.40 104.90 377.04 105.89 C 379.92 106.42 382.66 105.23 385.43 104.69 C 387.17 104.56 388.85 105.31 390.59 105.39 C 393.68 103.95 396.45 101.89 399.57 100.50 C 398.27 100.03 396.98 99.55 395.69 99.08 C 396.62 98.85 397.55 98.63 398.49 98.40 C 398.44 97.06 398.38 95.72 398.34 94.38 C 403.62 95.51 410.35 98.05 414.67 93.38 Z" />
<path fill="#a05400" d=" M 229.17 106.60 C 232.92 105.69 236.77 105.32 240.55 104.60 C 245.17 104.84 249.80 104.90 254.43 104.65 C 257.09 105.18 259.77 105.72 262.46 106.10 C 258.37 109.35 252.88 108.57 248.01 108.81 C 241.70 108.67 235.07 109.31 229.17 106.60 Z" />
<path fill="#e47e00" d=" M 262.46 106.10 C 265.25 106.47 268.04 106.95 270.72 107.80 C 278.36 110.78 286.02 113.70 293.61 116.80 C 299.56 120.56 305.37 124.64 310.32 129.69 C 318.06 137.26 323.84 146.53 328.88 156.04 C 317.73 156.23 306.42 156.70 295.42 154.63 C 273.96 136.80 242.67 131.07 216.64 141.59 C 211.43 143.58 206.97 146.96 202.60 150.34 C 199.50 150.47 197.20 153.25 194.01 152.93 C 187.68 152.99 181.24 152.27 175.08 154.13 C 175.86 152.18 176.68 150.24 177.54 148.33 C 180.36 142.13 183.68 136.15 187.55 130.55 C 197.53 117.36 213.26 109.84 229.17 106.60 C 235.07 109.31 241.70 108.67 248.01 108.81 C 252.88 108.57 258.37 109.35 262.46 106.10 Z" />
<path fill="#484848" d=" M 270.72 107.80 C 270.95 107.21 271.39 106.03 271.61 105.44 C 278.66 108.48 285.93 111.01 292.96 114.09 C 293.12 114.77 293.45 116.12 293.61 116.80 C 286.02 113.70 278.36 110.78 270.72 107.80 Z" />
<path fill="#d9d9d9" d=" M 425.61 109.29 L 425.87 109.19 C 427.91 114.47 430.48 119.78 430.74 125.52 C 430.59 127.82 430.37 130.12 430.34 132.42 C 425.79 132.77 423.99 137.25 422.94 141.04 C 421.27 147.25 422.55 153.69 422.74 159.99 C 422.92 166.93 424.45 173.73 425.19 180.61 C 425.68 185.46 427.90 189.95 428.25 194.83 C 428.55 198.47 428.53 202.25 430.27 205.58 C 430.66 222.85 430.61 240.16 430.32 257.44 C 427.25 266.02 424.76 274.81 422.55 283.65 C 421.18 292.57 418.83 301.30 417.02 310.14 C 414.91 320.19 410.78 329.68 407.11 339.22 C 404.36 341.44 401.75 343.80 399.30 346.35 C 397.26 347.05 395.04 346.80 392.93 346.89 C 364.41 346.63 335.88 347.07 307.36 346.64 C 307.74 346.16 308.49 345.18 308.87 344.70 C 312.04 340.44 314.83 335.93 317.67 331.45 C 319.83 327.96 321.91 324.42 323.92 320.84 C 327.24 314.77 330.35 308.58 333.13 302.24 C 335.38 302.78 337.66 303.31 340.00 303.30 C 358.68 303.19 377.36 303.25 396.04 303.31 C 400.76 303.86 403.77 299.33 405.85 295.77 C 408.35 288.88 411.57 282.23 413.18 275.05 C 414.36 270.75 414.08 266.25 414.89 261.90 C 417.31 251.76 415.84 241.28 416.19 230.98 C 416.70 220.29 414.81 209.70 414.29 199.06 C 414.53 188.92 412.10 179.00 411.01 168.97 C 410.09 162.57 407.44 156.53 407.08 150.01 C 406.51 143.63 402.40 137.25 404.80 130.84 C 405.38 128.08 405.15 125.22 405.39 122.42 C 404.57 121.84 403.75 121.29 402.94 120.72 C 403.97 120.70 405.00 120.67 406.04 120.65 C 406.65 118.15 405.56 116.23 403.48 114.91 C 404.22 113.40 404.97 111.90 405.74 110.40 C 408.81 111.08 411.86 112.05 415.03 112.17 C 418.72 111.99 422.16 110.47 425.61 109.29 Z" />
<path fill="#7e7e89" d=" M 243.55 113.96 C 244.19 112.25 245.90 109.73 248.01 110.99 C 250.83 111.91 249.89 116.69 247.00 116.51 C 245.28 116.90 244.57 114.89 243.55 113.96 Z" />
<path fill="#d6d6d6" d=" M 82.88 119.89 C 87.27 124.44 95.10 125.06 97.47 131.55 C 99.85 138.34 99.95 145.79 98.88 152.86 C 98.59 157.46 98.73 162.11 97.65 166.64 C 95.83 175.00 96.55 183.62 95.04 192.01 C 94.29 196.63 94.08 201.32 94.17 206.00 C 94.35 211.68 93.13 217.28 93.13 222.95 C 93.10 230.64 93.19 238.33 93.15 246.01 C 92.85 257.32 94.64 268.55 96.58 279.65 C 99.11 290.02 100.90 300.63 104.63 310.67 C 107.29 313.82 110.17 316.86 113.26 319.60 C 122.02 320.18 130.87 319.85 139.66 319.72 C 140.78 316.14 141.76 312.53 142.67 308.90 C 142.98 312.50 143.22 316.11 143.38 319.73 C 162.78 319.97 182.18 319.88 201.58 319.75 C 201.85 319.02 202.39 317.55 202.66 316.82 C 203.28 319.95 203.77 323.10 204.10 326.28 C 204.50 330.70 204.54 335.16 205.23 339.56 C 205.80 342.53 206.56 345.46 207.54 348.32 C 204.38 348.74 201.21 349.01 198.03 348.94 C 179.80 348.74 161.55 349.11 143.32 348.78 C 143.18 345.46 142.97 342.15 142.70 338.85 C 141.89 342.18 140.98 345.50 139.80 348.73 C 132.19 349.05 124.56 348.91 116.95 348.94 C 112.48 349.13 109.61 345.08 106.42 342.58 C 103.33 337.54 102.00 331.62 99.80 326.16 C 95.02 314.81 93.72 302.45 90.51 290.63 C 89.10 285.78 89.03 280.62 87.24 275.87 C 85.35 270.65 82.24 265.70 82.24 259.99 C 82.25 242.36 81.93 224.72 82.40 207.10 C 82.53 197.12 87.06 187.91 88.07 178.05 C 89.13 171.40 88.80 164.61 89.99 157.97 C 91.12 150.21 91.30 141.71 86.98 134.82 C 85.86 132.58 83.07 132.78 80.96 132.41 C 81.22 128.18 82.10 124.04 82.88 119.89 Z" />
<path fill="#555657" d=" M 233.06 125.03 C 233.99 123.10 236.26 123.44 238.02 123.41 C 245.00 123.57 251.99 123.27 258.97 123.54 C 261.94 124.10 262.09 128.48 259.08 129.26 C 251.00 129.60 242.89 129.20 234.80 129.45 C 233.51 128.51 231.53 126.64 233.06 125.03 Z" />
<path fill="#725f43" d=" M 224.86 125.17 C 226.51 124.66 227.06 125.21 226.53 126.82 C 224.88 127.33 224.32 126.78 224.86 125.17 Z" />
<path fill="#b5b5b5" d=" M 430.34 132.42 C 430.37 130.12 430.59 127.82 430.74 125.52 C 431.33 128.64 431.51 131.83 431.51 135.01 C 431.55 208.32 431.46 281.64 431.55 354.95 C 428.33 358.75 423.24 360.20 420.01 364.00 C 412.62 372.23 406.15 381.69 396.44 387.43 C 385.80 394.75 372.57 396.35 360.01 397.17 C 294.69 397.16 229.37 397.19 164.05 397.20 C 151.39 397.15 138.38 396.88 126.36 392.49 C 119.21 389.93 113.26 385.10 107.08 380.86 C 100.99 376.69 97.47 369.91 91.89 365.18 C 88.86 362.22 84.55 361.09 81.64 357.98 C 81.77 351.84 81.71 345.70 81.80 339.57 C 83.64 340.53 85.76 341.29 86.94 343.12 C 93.75 353.13 99.84 363.91 108.91 372.11 C 113.67 377.83 119.82 382.60 127.03 384.74 C 135.48 387.09 144.16 388.86 152.97 388.80 C 221.30 388.84 289.63 388.78 357.97 388.82 C 368.16 388.96 378.33 387.17 387.98 383.93 C 393.93 381.81 398.58 377.32 402.91 372.90 C 405.28 370.34 407.99 367.92 409.43 364.67 C 411.27 360.38 414.76 357.11 416.88 352.97 C 420.13 347.44 422.06 341.17 426.01 336.05 C 427.76 333.64 429.98 331.21 429.87 328.02 C 430.29 315.57 430.42 303.10 430.24 290.64 C 430.53 279.58 430.70 268.50 430.32 257.44 C 430.61 240.16 430.66 222.85 430.27 205.58 C 430.79 181.20 430.28 156.80 430.34 132.42 Z" />
<path fill="#cdcdcd" d=" M 80.96 132.41 C 83.07 132.78 85.86 132.58 86.98 134.82 C 91.30 141.71 91.12 150.21 89.99 157.97 C 88.80 164.61 89.13 171.40 88.07 178.05 C 87.06 187.91 82.53 197.12 82.40 207.10 C 81.93 224.72 82.25 242.36 82.24 259.99 C 82.24 265.70 85.35 270.65 87.24 275.87 C 89.03 280.62 89.10 285.78 90.51 290.63 C 93.72 302.45 95.02 314.81 99.80 326.16 C 102.00 331.62 103.33 337.54 106.42 342.58 C 109.61 345.08 112.48 349.13 116.95 348.94 C 124.56 348.91 132.19 349.05 139.80 348.73 C 140.98 345.50 141.89 342.18 142.70 338.85 C 142.97 342.15 143.18 345.46 143.32 348.78 C 161.55 349.11 179.80 348.74 198.03 348.94 C 201.21 349.01 204.38 348.74 207.54 348.32 C 210.99 357.87 217.96 366.08 226.89 370.93 C 222.72 372.28 218.30 372.06 213.98 371.97 C 186.00 371.88 158.01 371.90 130.03 371.97 C 125.71 372.12 122.19 369.42 118.57 367.48 C 116.01 366.04 112.97 365.25 111.01 362.93 C 105.62 356.73 100.90 349.80 98.24 341.98 C 96.81 337.39 94.58 333.07 93.49 328.36 C 91.93 321.74 89.97 315.22 88.34 308.62 C 87.32 304.26 84.66 300.60 82.07 297.05 C 81.78 311.22 81.67 325.40 81.80 339.57 C 81.71 345.70 81.77 351.84 81.64 357.98 C 81.64 358.52 81.64 359.61 81.64 360.15 C 81.13 357.13 80.83 354.07 80.88 351.01 C 80.97 278.15 80.80 205.28 80.96 132.41 Z" />
<path fill="#cecece" d=" M 422.94 141.04 C 423.99 137.25 425.79 132.77 430.34 132.42 C 430.28 156.80 430.79 181.20 430.27 205.58 C 428.53 202.25 428.55 198.47 428.25 194.83 C 427.90 189.95 425.68 185.46 425.19 180.61 C 424.45 173.73 422.92 166.93 422.74 159.99 C 422.55 153.69 421.27 147.25 422.94 141.04 Z" />
<path fill="#cd5800" d=" M 216.64 141.59 C 242.67 131.07 273.96 136.80 295.42 154.63 C 300.83 159.55 305.11 165.49 309.10 171.57 C 312.42 176.97 314.96 182.79 317.75 188.46 C 319.82 193.84 321.75 199.30 323.05 204.93 C 324.30 210.27 325.36 215.67 325.68 221.16 C 323.44 207.89 319.40 194.39 310.96 183.68 C 315.33 195.44 320.75 207.37 320.46 220.20 C 319.94 215.34 319.60 210.25 317.18 205.89 C 314.82 201.72 313.03 197.26 310.83 193.02 C 311.64 191.47 312.45 189.74 311.56 188.03 C 310.23 183.86 307.98 180.07 305.70 176.38 C 300.91 169.01 296.13 161.36 289.06 155.94 C 273.99 143.19 253.29 138.27 233.92 140.79 C 224.65 142.76 215.16 145.59 207.78 151.78 C 200.72 157.54 196.31 165.84 193.15 174.23 C 191.99 173.20 190.84 172.17 189.69 171.14 C 193.06 163.70 197.01 156.38 202.60 150.34 C 206.97 146.96 211.43 143.58 216.64 141.59 Z" />
<path fill="#e58400" d=" M 233.92 140.79 C 253.29 138.27 273.99 143.19 289.06 155.94 C 296.13 161.36 300.91 169.01 305.70 176.38 C 307.98 180.07 310.23 183.86 311.56 188.03 C 312.45 189.74 311.64 191.47 310.83 193.02 C 308.98 190.00 306.95 187.10 304.77 184.32 C 303.62 182.62 302.46 180.93 301.43 179.17 C 297.85 173.12 294.45 166.25 288.12 162.64 C 289.07 164.70 290.85 166.72 290.20 169.15 C 282.11 161.57 271.98 156.26 261.19 153.76 C 247.98 150.34 233.63 152.05 221.51 158.26 C 214.52 161.92 208.80 167.89 205.83 175.25 C 205.26 172.42 204.61 169.62 203.85 166.85 C 199.19 173.09 195.42 180.36 194.67 188.22 C 194.39 190.06 194.14 191.92 193.86 193.77 C 193.27 194.84 192.63 195.90 192.01 196.96 C 191.72 194.06 191.35 191.14 190.21 188.44 L 189.76 187.17 C 190.89 182.85 191.87 178.50 193.15 174.23 C 196.31 165.84 200.72 157.54 207.78 151.78 C 215.16 145.59 224.65 142.76 233.92 140.79 Z" />
<path fill="#ececeb" d=" M 143.30 148.29 C 154.71 148.11 166.13 148.10 177.54 148.33 C 176.68 150.24 175.86 152.18 175.08 154.13 C 173.63 157.73 172.57 161.47 171.62 165.23 C 170.38 165.40 169.14 165.60 167.92 165.81 C 167.02 172.88 166.11 179.95 164.98 186.99 C 166.08 187.39 167.18 187.79 168.28 188.19 C 168.34 193.40 168.52 198.62 169.14 203.81 C 169.21 204.48 169.34 205.83 169.41 206.50 C 168.62 206.65 167.06 206.93 166.28 207.07 C 167.38 211.89 168.38 216.73 169.52 221.53 C 170.50 221.63 171.48 221.74 172.46 221.85 C 173.15 225.34 174.10 228.77 175.17 232.16 C 174.49 232.31 173.13 232.61 172.45 232.76 C 173.80 237.40 175.37 241.98 176.62 246.66 C 177.37 246.68 178.87 246.71 179.62 246.72 C 181.63 251.77 183.20 256.97 185.32 261.97 C 187.81 268.82 190.40 275.64 192.91 282.48 C 189.63 284.57 185.63 284.07 181.93 284.07 C 169.09 283.68 156.23 284.49 143.40 283.83 C 143.11 281.47 142.82 279.11 142.50 276.77 C 141.72 281.47 141.02 286.20 139.53 290.75 C 130.79 290.80 121.98 291.26 113.28 290.56 C 110.35 287.35 107.63 283.82 106.15 279.69 C 103.95 275.02 104.03 269.72 102.16 264.95 C 99.22 256.61 100.33 247.67 100.14 239.02 C 100.25 230.65 99.69 222.25 100.78 213.93 C 101.61 207.73 101.24 201.32 103.28 195.33 C 104.92 190.93 103.35 186.10 104.86 181.68 C 107.20 174.79 106.52 166.90 110.78 160.70 C 112.23 158.87 112.16 156.46 112.50 154.27 C 121.77 153.98 131.05 154.16 140.33 154.15 C 140.18 157.10 140.13 160.09 140.73 163.01 C 143.01 173.93 140.98 185.17 142.47 196.16 C 142.75 194.10 142.96 192.03 142.99 189.95 C 143.05 176.06 143.18 162.18 143.30 148.29 Z" />
<path fill="#e78e00" d=" M 194.01 152.93 C 197.20 153.25 199.50 150.47 202.60 150.34 C 197.01 156.38 193.06 163.70 189.69 171.14 C 188.19 174.70 187.20 178.45 186.29 182.20 C 186.24 181.81 186.15 181.05 186.10 180.67 C 181.46 182.41 176.46 182.13 171.64 181.49 C 170.98 179.83 170.32 178.18 169.72 176.51 C 170.05 172.71 170.53 168.90 171.62 165.23 C 172.57 161.47 173.63 157.73 175.08 154.13 C 181.24 152.27 187.68 152.99 194.01 152.93 Z" />
<path fill="#e69f00" d=" M 221.51 158.26 C 233.63 152.05 247.98 150.34 261.19 153.76 C 260.72 153.85 259.78 154.02 259.31 154.10 C 261.11 155.97 262.93 157.82 264.73 159.68 C 264.18 159.79 263.08 160.01 262.53 160.12 C 253.26 158.52 243.50 157.51 234.37 160.38 C 230.30 161.65 226.17 162.93 222.50 165.17 C 220.80 166.28 219.16 167.50 217.60 168.81 C 217.21 164.80 220.05 161.72 221.51 158.26 Z" />
<path fill="#e7b400" d=" M 259.31 154.10 C 259.78 154.02 260.72 153.85 261.19 153.76 C 271.98 156.26 282.11 161.57 290.20 169.15 L 289.96 169.99 C 289.70 170.85 289.42 171.70 289.16 172.56 C 288.02 172.73 286.88 172.91 285.75 173.08 C 279.14 166.63 270.45 162.57 261.48 160.64 L 262.53 160.12 C 263.08 160.01 264.18 159.79 264.73 159.68 C 262.93 157.82 261.11 155.97 259.31 154.10 Z" />
<path fill="#e78b00" d=" M 295.42 154.63 C 306.42 156.70 317.73 156.23 328.88 156.04 C 332.08 162.09 334.87 168.35 337.44 174.70 C 343.53 190.13 347.39 206.49 348.36 223.07 C 345.11 206.32 341.34 189.31 332.59 174.43 C 330.06 170.07 327.06 165.95 323.42 162.44 C 320.55 159.50 316.39 157.77 312.28 158.69 C 310.88 159.46 309.52 160.30 308.16 161.14 C 309.16 164.52 310.03 168.06 309.10 171.57 C 305.11 165.49 300.83 159.55 295.42 154.63 Z" />
<path fill="#eaa728" d=" M 312.28 158.69 C 316.39 157.77 320.55 159.50 323.42 162.44 C 323.49 164.87 323.81 167.29 324.49 169.63 C 326.93 177.98 327.58 186.70 329.69 195.12 C 329.13 199.10 330.58 203.03 329.99 207.01 C 328.86 205.32 327.80 203.60 326.70 201.90 C 326.53 202.98 326.35 204.06 326.24 205.15 C 325.17 205.07 324.11 205.00 323.05 204.93 C 321.75 199.30 319.82 193.84 317.75 188.46 C 316.98 178.44 316.41 167.99 312.28 158.69 Z" />
<path fill="#eab900" d=" M 205.83 175.25 C 208.80 167.89 214.52 161.92 221.51 158.26 C 220.05 161.72 217.21 164.80 217.60 168.81 C 213.03 173.83 209.61 179.80 207.08 186.08 C 206.71 187.33 206.40 188.61 206.11 189.89 C 204.85 188.95 203.59 188.02 202.33 187.09 C 199.47 195.04 199.82 203.55 199.88 211.85 C 198.69 210.68 197.50 209.50 196.31 208.34 C 196.11 209.95 195.90 211.56 195.75 213.19 C 193.79 206.91 194.01 200.27 193.86 193.77 C 194.14 191.92 194.39 190.06 194.67 188.22 C 195.31 187.24 195.95 186.27 196.62 185.32 C 197.65 187.13 198.66 188.95 199.69 190.76 C 201.49 185.50 203.25 180.20 205.83 175.25 Z" />
<path fill="#e7c400" d=" M 234.37 160.38 C 243.50 157.51 253.26 158.52 262.53 160.12 L 261.48 160.64 C 261.16 160.80 260.50 161.12 260.18 161.29 C 263.18 162.72 265.63 165.06 265.63 168.61 C 265.22 168.78 264.39 169.11 263.98 169.28 C 253.40 166.18 241.57 165.99 231.30 170.31 C 227.56 171.64 223.99 173.60 221.33 176.60 C 219.49 172.83 222.05 168.96 222.50 165.17 C 226.17 162.93 230.30 161.65 234.37 160.38 Z" />
<path fill="#e89b13" d=" M 308.16 161.14 C 309.52 160.30 310.88 159.46 312.28 158.69 C 316.41 167.99 316.98 178.44 317.75 188.46 C 314.96 182.79 312.42 176.97 309.10 171.57 C 310.03 168.06 309.16 164.52 308.16 161.14 Z" />
<path fill="#e8d600" d=" M 260.18 161.29 C 260.50 161.12 261.16 160.80 261.48 160.64 C 270.45 162.57 279.14 166.63 285.75 173.08 C 287.35 174.89 288.74 176.87 290.36 178.67 C 292.16 181.00 295.45 180.78 297.86 182.16 C 296.96 183.23 296.74 184.55 296.67 185.90 C 294.72 185.20 292.69 183.98 290.56 184.57 C 289.77 185.34 289.02 186.14 288.32 186.99 C 285.78 183.51 283.01 180.15 279.70 177.38 C 275.11 173.59 269.54 171.25 263.98 169.28 C 264.39 169.11 265.22 168.78 265.63 168.61 C 265.63 165.06 263.18 162.72 260.18 161.29 Z" />
<path fill="#e8a000" d=" M 288.12 162.64 C 294.45 166.25 297.85 173.12 301.43 179.17 C 295.84 178.99 293.06 173.83 289.96 169.99 L 290.20 169.15 C 290.85 166.72 289.07 164.70 288.12 162.64 Z" />
<path fill="#ecb747" d=" M 324.49 169.63 C 323.81 167.29 323.49 164.87 323.42 162.44 C 327.06 165.95 330.06 170.07 332.59 174.43 C 341.34 189.31 345.11 206.32 348.36 223.07 C 349.20 232.15 348.49 241.31 347.65 250.37 C 344.00 244.51 342.10 237.84 340.72 231.14 C 337.28 219.07 335.25 206.49 329.69 195.12 C 327.58 186.70 326.93 177.98 324.49 169.63 Z" />
<path fill="#56595d" d=" M 167.92 165.81 C 169.14 165.60 170.38 165.40 171.62 165.23 C 170.53 168.90 170.05 172.71 169.72 176.51 C 169.26 180.40 168.45 184.26 168.28 188.19 C 167.18 187.79 166.08 187.39 164.98 186.99 C 166.11 179.95 167.02 172.88 167.92 165.81 Z" />
<path fill="#e9d300" d=" M 217.60 168.81 C 219.16 167.50 220.80 166.28 222.50 165.17 C 222.05 168.96 219.49 172.83 221.33 176.60 C 219.19 179.39 217.07 182.21 215.28 185.25 C 213.19 186.14 211.11 187.03 209.02 187.90 C 208.37 187.29 207.73 186.68 207.08 186.08 C 209.61 179.80 213.03 173.83 217.60 168.81 Z" />
<path fill="#e9a800" d=" M 194.67 188.22 C 195.42 180.36 199.19 173.09 203.85 166.85 C 204.61 169.62 205.26 172.42 205.83 175.25 C 203.25 180.20 201.49 185.50 199.69 190.76 C 198.66 188.95 197.65 187.13 196.62 185.32 C 195.95 186.27 195.31 187.24 194.67 188.22 Z" />
<path fill="#ecec00" d=" M 231.30 170.31 C 241.57 165.99 253.40 166.18 263.98 169.28 C 269.54 171.25 275.11 173.59 279.70 177.38 C 283.01 180.15 285.78 183.51 288.32 186.99 C 288.85 187.73 289.38 188.49 289.90 189.26 C 294.69 197.28 298.78 205.85 300.52 215.10 C 302.09 220.81 301.26 226.77 302.15 232.56 C 301.20 248.62 295.14 263.93 286.20 277.18 C 282.29 277.25 278.38 277.05 274.52 276.37 C 277.88 273.23 280.74 269.61 283.36 265.84 C 287.85 259.25 290.69 251.70 293.11 244.15 C 294.73 239.27 295.18 234.10 295.03 228.99 C 295.27 224.35 291.50 220.68 291.91 215.99 C 292.90 217.63 293.85 219.29 294.80 220.96 C 294.27 215.74 293.86 210.38 291.60 205.56 C 287.28 196.21 282.23 186.31 273.15 180.75 C 268.35 177.71 262.86 176.07 257.40 174.71 C 253.68 173.20 250.12 170.93 246.01 170.72 C 239.38 170.25 232.46 174.11 229.96 180.39 C 229.62 180.72 228.94 181.39 228.59 181.72 C 222.58 186.99 219.86 194.93 218.62 202.61 C 217.35 207.19 218.43 211.87 219.48 216.37 C 221.89 229.33 229.31 240.61 232.54 253.32 C 234.95 261.10 233.66 269.85 238.00 277.01 C 235.46 277.05 232.93 276.98 230.40 276.82 C 230.07 275.55 229.73 274.29 229.46 273.01 C 228.34 264.48 226.35 256.01 222.91 248.10 C 217.15 234.10 210.54 219.99 209.84 204.61 C 211.17 198.04 212.06 191.24 215.28 185.25 C 217.07 182.21 219.19 179.39 221.33 176.60 C 223.99 173.60 227.56 171.64 231.30 170.31 Z" />
<path fill="#e9c000" d=" M 289.16 172.56 C 289.42 171.70 289.70 170.85 289.96 169.99 C 293.06 173.83 295.84 178.99 301.43 179.17 C 302.46 180.93 303.62 182.62 304.77 184.32 C 305.65 186.96 306.68 189.55 307.94 192.04 C 311.19 198.52 312.82 205.65 314.28 212.70 C 314.15 212.98 313.89 213.54 313.75 213.81 C 310.58 202.35 305.73 191.22 297.86 182.16 C 295.45 180.78 292.16 181.00 290.36 178.67 C 288.74 176.87 287.35 174.89 285.75 173.08 C 286.88 172.91 288.02 172.73 289.16 172.56 Z" />
<path fill="#d16d02" d=" M 186.29 182.20 C 187.20 178.45 188.19 174.70 189.69 171.14 C 190.84 172.17 191.99 173.20 193.15 174.23 C 191.87 178.50 190.89 182.85 189.76 187.17 C 188.98 189.96 188.64 192.84 188.43 195.72 C 187.95 195.72 186.99 195.73 186.51 195.73 C 186.32 192.40 186.00 189.08 185.78 185.76 C 185.94 184.57 186.11 183.38 186.29 182.20 Z" />
<path fill="#e8d500" d=" M 229.96 180.39 C 232.46 174.11 239.38 170.25 246.01 170.72 C 250.12 170.93 253.68 173.20 257.40 174.71 C 255.27 174.62 253.15 174.59 251.03 174.61 C 243.57 174.36 236.46 176.94 229.96 180.39 Z" />
<path fill="#d6d600" d=" M 251.03 174.61 C 253.15 174.59 255.27 174.62 257.40 174.71 C 262.86 176.07 268.35 177.71 273.15 180.75 C 282.23 186.31 287.28 196.21 291.60 205.56 C 288.62 205.26 288.15 201.56 286.28 199.75 C 284.78 197.18 281.77 196.86 279.08 196.95 C 279.22 200.85 279.47 204.74 279.66 208.64 C 276.37 208.58 272.97 207.88 269.75 208.78 C 268.42 209.74 267.47 211.11 266.38 212.32 C 258.27 211.35 250.10 210.87 241.97 210.02 C 237.79 209.23 233.59 208.47 229.33 208.32 C 226.51 208.23 224.26 204.75 221.37 206.31 C 220.57 207.35 219.95 208.52 219.29 209.65 C 219.09 207.30 218.83 204.96 218.62 202.61 C 219.86 194.93 222.58 186.99 228.59 181.72 C 229.30 182.03 230.00 182.34 230.71 182.65 C 231.18 184.67 231.18 186.91 232.29 188.72 C 235.59 192.39 241.25 193.88 245.84 191.87 C 248.16 190.82 250.69 190.71 253.18 190.49 C 254.33 187.10 256.54 184.34 259.34 182.12 C 258.28 180.69 257.23 179.27 256.17 177.84 C 255.71 179.97 255.25 182.10 254.72 184.22 C 252.73 181.35 251.87 177.95 251.03 174.61 Z" />
<path fill="#ededed" d=" M 337.44 174.70 C 344.22 173.26 351.16 174.24 358.03 174.01 C 372.21 174.28 386.40 173.63 400.57 174.20 C 400.78 176.00 401.00 177.81 401.26 179.61 C 401.95 180.36 402.60 181.15 403.21 181.98 C 407.52 193.51 407.19 206.01 408.72 218.07 C 409.43 228.03 408.86 238.03 409.10 248.01 C 409.40 256.08 407.50 264.00 405.54 271.76 C 404.02 275.77 401.04 280.88 396.02 280.09 C 378.53 279.81 361.03 280.29 343.54 279.83 C 343.43 277.76 343.29 275.69 343.27 273.62 C 344.15 269.93 345.01 266.24 345.79 262.53 C 346.65 258.51 347.17 254.44 347.65 250.37 C 348.49 241.31 349.20 232.15 348.36 223.07 C 347.39 206.49 343.53 190.13 337.44 174.70 Z" />
<path fill="#d5b900" d=" M 229.96 180.39 C 236.46 176.94 243.57 174.36 251.03 174.61 C 251.87 177.95 252.73 181.35 254.72 184.22 C 255.25 182.10 255.71 179.97 256.17 177.84 C 257.23 179.27 258.28 180.69 259.34 182.12 C 256.54 184.34 254.33 187.10 253.18 190.49 C 250.69 190.71 248.16 190.82 245.84 191.87 C 241.25 193.88 235.59 192.39 232.29 188.72 C 231.18 186.91 231.18 184.67 230.71 182.65 C 230.00 182.34 229.30 182.03 228.59 181.72 C 228.94 181.39 229.62 180.72 229.96 180.39 Z" />
<path fill="#eb9c00" d=" M 169.72 176.51 C 170.32 178.18 170.98 179.83 171.64 181.49 C 176.46 182.13 181.46 182.41 186.10 180.67 C 186.15 181.05 186.24 181.81 186.29 182.20 C 186.11 183.38 185.94 184.57 185.78 185.76 C 184.77 191.39 184.94 197.14 185.46 202.82 C 184.58 203.51 183.70 204.20 182.82 204.89 C 178.67 204.97 173.24 202.54 170.11 206.40 C 169.78 205.53 169.45 204.67 169.14 203.81 C 168.52 198.62 168.34 193.40 168.28 188.19 C 168.45 184.26 169.26 180.40 169.72 176.51 Z" />
<path fill="#ebdb30" d=" M 296.67 185.90 C 296.74 184.55 296.96 183.23 297.86 182.16 C 305.73 191.22 310.58 202.35 313.75 213.81 C 313.89 213.54 314.15 212.98 314.28 212.70 C 316.21 220.17 315.75 227.93 316.50 235.55 C 315.96 237.17 315.37 238.78 314.85 240.41 C 314.49 234.61 314.51 228.76 313.40 223.03 C 313.32 224.08 313.25 225.14 313.21 226.20 C 312.62 223.52 312.09 220.82 311.66 218.11 C 310.53 210.83 307.44 204.04 304.05 197.56 C 303.46 197.73 302.87 197.91 302.29 198.09 C 301.60 197.33 300.92 196.57 300.25 195.81 C 299.96 196.36 299.40 197.47 299.11 198.02 C 296.97 194.33 294.41 190.17 289.90 189.26 C 289.38 188.49 288.85 187.73 288.32 186.99 C 289.02 186.14 289.77 185.34 290.56 184.57 C 292.69 183.98 294.72 185.20 296.67 185.90 Z" />
<path fill="#d69c5b" d=" M 310.96 183.68 C 319.40 194.39 323.44 207.89 325.68 221.16 C 326.75 228.57 326.23 236.08 325.01 243.43 C 324.19 241.00 323.28 238.61 322.47 236.19 C 321.77 237.92 321.06 239.65 320.34 241.37 C 320.46 234.31 320.31 227.26 320.46 220.20 C 320.75 207.37 315.33 195.44 310.96 183.68 Z" />
<path fill="#ece214" d=" M 209.02 187.90 C 211.11 187.03 213.19 186.14 215.28 185.25 C 212.06 191.24 211.17 198.04 209.84 204.61 C 208.81 208.01 208.00 211.69 205.46 214.35 C 203.07 206.33 204.28 197.88 206.11 189.89 C 206.40 188.61 206.71 187.33 207.08 186.08 C 207.73 186.68 208.37 187.29 209.02 187.90 Z" />
<path fill="#eebc4d" d=" M 304.77 184.32 C 306.95 187.10 308.98 190.00 310.83 193.02 C 313.03 197.26 314.82 201.72 317.18 205.89 C 319.60 210.25 319.94 215.34 320.46 220.20 C 320.31 227.26 320.46 234.31 320.34 241.37 C 319.87 242.49 319.39 243.60 318.91 244.71 C 318.49 241.57 317.54 238.53 316.50 235.55 C 315.75 227.93 316.21 220.17 314.28 212.70 C 312.82 205.65 311.19 198.52 307.94 192.04 C 306.68 189.55 305.65 186.96 304.77 184.32 Z" />
<path fill="#d47c12" d=" M 185.46 202.82 C 184.94 197.14 184.77 191.39 185.78 185.76 C 186.00 189.08 186.32 192.40 186.51 195.73 C 186.99 195.73 187.95 195.72 188.43 195.72 C 188.64 192.84 188.98 189.96 189.76 187.17 L 190.21 188.44 C 189.97 193.15 189.77 197.86 190.02 202.57 C 189.45 207.29 190.54 211.91 191.57 216.47 C 190.62 217.13 189.66 217.79 188.71 218.46 C 187.35 213.31 186.14 208.10 185.46 202.82 Z" />
<path fill="#eed000" d=" M 202.33 187.09 C 203.59 188.02 204.85 188.95 206.11 189.89 C 204.28 197.88 203.07 206.33 205.46 214.35 C 207.28 223.13 210.31 231.62 214.20 239.69 C 218.42 248.42 221.90 257.48 224.96 266.68 C 225.18 268.55 225.32 270.44 225.40 272.33 C 224.14 271.04 223.00 269.65 221.95 268.20 C 222.88 274.24 224.22 280.27 224.03 286.42 C 223.25 283.37 221.47 280.75 219.00 278.83 C 218.20 275.77 217.14 272.79 216.31 269.75 C 215.36 265.59 214.14 261.49 212.43 257.59 C 206.62 243.49 199.98 229.66 196.17 214.84 C 196.06 214.43 195.86 213.60 195.75 213.19 C 195.90 211.56 196.11 209.95 196.31 208.34 C 197.50 209.50 198.69 210.68 199.88 211.85 C 199.82 203.55 199.47 195.04 202.33 187.09 Z" />
<path fill="#ec9f03" d=" M 190.21 188.44 C 191.35 191.14 191.72 194.06 192.01 196.96 C 192.63 195.90 193.27 194.84 193.86 193.77 C 194.01 200.27 193.79 206.91 195.75 213.19 C 195.86 213.60 196.06 214.43 196.17 214.84 C 196.08 216.82 195.90 218.80 195.76 220.78 C 194.83 218.67 193.80 216.62 192.74 214.59 C 191.72 210.61 190.87 206.59 190.02 202.57 C 189.77 197.86 189.97 193.15 190.21 188.44 Z" />
<path fill="#eeeb71" d=" M 289.90 189.26 C 294.41 190.17 296.97 194.33 299.11 198.02 C 302.34 204.11 305.35 210.42 306.72 217.23 C 308.17 222.85 308.00 228.69 308.06 234.46 C 307.79 236.94 307.50 239.42 307.29 241.92 C 304.72 239.34 303.67 235.77 302.15 232.56 C 301.26 226.77 302.09 220.81 300.52 215.10 C 298.78 205.85 294.69 197.28 289.90 189.26 Z" />
<path fill="#eee24c" d=" M 300.25 195.81 C 300.92 196.57 301.60 197.33 302.29 198.09 C 302.87 197.91 303.46 197.73 304.05 197.56 C 307.44 204.04 310.53 210.83 311.66 218.11 C 312.09 220.82 312.62 223.52 313.21 226.20 C 313.52 231.72 312.74 237.44 310.22 242.42 C 309.71 239.71 309.06 237.03 308.06 234.46 C 308.00 228.69 308.17 222.85 306.72 217.23 C 305.35 210.42 302.34 204.11 299.11 198.02 C 299.40 197.47 299.96 196.36 300.25 195.81 Z" />
<path fill="#eeb530" d=" M 329.99 207.01 C 330.58 203.03 329.13 199.10 329.69 195.12 C 335.25 206.49 337.28 219.07 340.72 231.14 C 342.10 237.84 344.00 244.51 347.65 250.37 C 347.17 254.44 346.65 258.51 345.79 262.53 C 344.77 262.82 343.76 263.17 342.75 263.47 C 333.82 245.17 330.12 224.97 326.24 205.15 C 326.35 204.06 326.53 202.98 326.70 201.90 C 327.80 203.60 328.86 205.32 329.99 207.01 Z" />
<path fill="#e2e200" d=" M 279.08 196.95 C 281.77 196.86 284.78 197.18 286.28 199.75 C 288.15 201.56 288.62 205.26 291.60 205.56 C 293.86 210.38 294.27 215.74 294.80 220.96 C 293.85 219.29 292.90 217.63 291.91 215.99 C 291.50 220.68 295.27 224.35 295.03 228.99 C 295.18 234.10 294.73 239.27 293.11 244.15 C 290.69 251.70 287.85 259.25 283.36 265.84 C 280.65 264.53 277.84 263.41 274.91 262.68 C 278.52 257.35 280.64 250.88 279.44 244.41 C 278.82 237.32 273.47 231.55 267.02 229.04 C 262.75 226.66 257.54 227.44 253.26 229.28 C 250.66 233.42 253.78 240.68 248.17 242.89 C 246.52 243.75 246.79 246.43 248.87 246.33 C 249.82 245.52 250.73 244.66 251.61 243.77 C 252.01 246.84 252.15 249.93 252.41 253.02 C 252.63 256.61 254.55 259.76 256.03 262.95 C 249.31 263.29 242.28 262.96 236.18 259.85 C 234.79 257.79 235.13 254.38 232.54 253.32 C 229.31 240.61 221.89 229.33 219.48 216.37 C 218.43 211.87 217.35 207.19 218.62 202.61 C 218.83 204.96 219.09 207.30 219.29 209.65 C 219.95 208.52 220.57 207.35 221.37 206.31 C 224.26 204.75 226.51 208.23 229.33 208.32 C 233.59 208.47 237.79 209.23 241.97 210.02 C 250.10 210.87 258.27 211.35 266.38 212.32 C 267.47 211.11 268.42 209.74 269.75 208.78 C 272.97 207.88 276.37 208.58 279.66 208.64 C 279.47 204.74 279.22 200.85 279.08 196.95 Z" />
<path fill="#d9d977" d=" M 259.28 202.03 C 262.21 200.39 259.55 205.36 259.28 202.03 Z" />
<path fill="#eda608" d=" M 182.82 204.89 C 183.70 204.20 184.58 203.51 185.46 202.82 C 186.14 208.10 187.35 213.31 188.71 218.46 C 189.22 220.39 189.75 222.31 190.34 224.22 C 185.36 225.41 180.23 225.07 175.21 224.38 C 175.73 227.26 176.48 230.25 175.45 233.12 L 175.17 232.16 C 174.10 228.77 173.15 225.34 172.46 221.85 C 171.50 216.72 169.93 211.71 169.41 206.50 C 169.34 205.83 169.21 204.48 169.14 203.81 C 169.45 204.67 169.78 205.53 170.11 206.40 C 173.24 202.54 178.67 204.97 182.82 204.89 Z" />
<path fill="#d58b1f" d=" M 190.02 202.57 C 190.87 206.59 191.72 210.61 192.74 214.59 C 193.92 222.16 196.86 229.27 199.67 236.35 C 203.73 246.30 207.67 256.31 211.70 266.27 C 210.42 267.02 209.12 267.71 207.79 268.34 L 207.42 267.39 C 202.05 252.88 195.28 238.91 190.34 224.22 C 189.75 222.31 189.22 220.39 188.71 218.46 C 189.66 217.79 190.62 217.13 191.57 216.47 C 190.54 211.91 189.45 207.29 190.02 202.57 Z" />
<path fill="#ebac0f" d=" M 323.05 204.93 C 324.11 205.00 325.17 205.07 326.24 205.15 C 330.12 224.97 333.82 245.17 342.75 263.47 C 343.76 263.17 344.77 262.82 345.79 262.53 C 345.01 266.24 344.15 269.93 343.27 273.62 C 342.21 277.29 341.13 280.96 339.91 284.59 C 332.87 288.96 324.33 286.25 316.57 287.16 C 316.53 288.26 316.50 289.36 316.46 290.46 C 315.46 290.84 314.47 291.23 313.48 291.62 C 312.99 295.21 312.29 300.37 307.46 300.08 C 309.41 294.85 312.99 289.42 310.99 283.65 C 317.02 272.45 321.77 260.47 324.22 247.96 C 324.56 246.46 324.80 244.94 325.01 243.43 C 326.23 236.08 326.75 228.57 325.68 221.16 C 325.36 215.67 324.30 210.27 323.05 204.93 Z" />
<path fill="#eeea2c" d=" M 205.46 214.35 C 208.00 211.69 208.81 208.01 209.84 204.61 C 210.54 219.99 217.15 234.10 222.91 248.10 C 226.35 256.01 228.34 264.48 229.46 273.01 C 229.14 273.23 228.50 273.66 228.18 273.88 C 227.14 271.46 226.02 269.08 224.96 266.68 C 221.90 257.48 218.42 248.42 214.20 239.69 C 210.31 231.62 207.28 223.13 205.46 214.35 Z" />
<path fill="#565962" d=" M 166.28 207.07 C 167.06 206.93 168.62 206.65 169.41 206.50 C 169.93 211.71 171.50 216.72 172.46 221.85 C 171.48 221.74 170.50 221.63 169.52 221.53 C 168.38 216.73 167.38 211.89 166.28 207.07 Z" />
<path fill="#eeaf10" d=" M 192.74 214.59 C 193.80 216.62 194.83 218.67 195.76 220.78 C 195.90 218.80 196.08 216.82 196.17 214.84 C 199.98 229.66 206.62 243.49 212.43 257.59 C 214.14 261.49 215.36 265.59 216.31 269.75 C 216.18 270.51 215.92 272.01 215.80 272.77 C 214.76 271.45 213.72 270.13 212.75 268.78 C 212.40 267.94 212.04 267.11 211.70 266.27 C 207.67 256.31 203.73 246.30 199.67 236.35 C 196.86 229.27 193.92 222.16 192.74 214.59 Z" />
<path fill="#e0e04f" d=" M 232.31 221.81 C 234.78 220.92 233.98 225.46 231.93 225.01 C 230.32 224.54 231.09 222.26 232.31 221.81 Z" />
<path fill="#e1e166" d=" M 239.39 223.06 C 240.38 221.87 242.57 223.50 241.62 224.78 C 240.60 226.01 238.47 224.34 239.39 223.06 Z" />
<path fill="#ebd702" d=" M 313.21 226.20 C 313.25 225.14 313.32 224.08 313.40 223.03 C 314.51 228.76 314.49 234.61 314.85 240.41 C 314.70 242.28 314.54 244.14 314.40 246.02 C 311.21 265.26 302.02 283.18 290.17 298.51 C 289.80 298.96 289.08 299.87 288.71 300.33 C 288.57 299.14 288.44 297.96 288.30 296.79 C 286.62 297.29 284.96 298.02 283.19 298.18 C 281.51 297.66 279.97 296.74 278.36 296.04 L 278.42 295.63 C 291.01 284.92 299.10 269.85 304.38 254.41 C 305.67 250.33 307.07 246.22 307.29 241.92 C 307.50 239.42 307.79 236.94 308.06 234.46 C 309.06 237.03 309.71 239.71 310.22 242.42 C 312.74 237.44 313.52 231.72 313.21 226.20 Z" />
<path fill="#eeaf11" d=" M 175.21 224.38 C 180.23 225.07 185.36 225.41 190.34 224.22 C 195.28 238.91 202.05 252.88 207.42 267.39 C 201.65 267.09 195.88 268.60 190.15 267.83 C 188.44 265.96 186.97 263.89 185.32 261.97 C 183.20 256.97 181.63 251.77 179.62 246.72 C 178.01 242.26 176.54 237.74 175.45 233.12 C 176.48 230.25 175.73 227.26 175.21 224.38 Z" />
<path fill="#e3e323" d=" M 253.26 229.28 C 257.54 227.44 262.75 226.66 267.02 229.04 C 273.47 231.55 278.82 237.32 279.44 244.41 C 280.64 250.88 278.52 257.35 274.91 262.68 C 272.15 264.45 269.17 266.18 265.87 266.58 C 262.27 266.56 259.25 264.26 256.03 262.95 C 254.55 259.76 252.63 256.61 252.41 253.02 C 252.15 249.93 252.01 246.84 251.61 243.77 C 250.51 243.28 249.36 242.99 248.17 242.89 C 253.78 240.68 250.66 233.42 253.26 229.28 Z" />
<path fill="#e5e540" d=" M 256.64 231.61 C 258.17 228.96 261.73 228.96 264.30 229.80 C 269.22 232.55 274.39 236.27 275.87 242.03 C 276.79 246.55 276.47 251.40 274.69 255.67 C 273.25 259.38 269.68 261.95 265.90 262.87 C 263.15 262.73 260.13 261.78 258.48 259.42 C 256.90 257.17 256.00 254.54 254.91 252.04 C 255.14 250.94 255.38 249.84 255.62 248.75 C 255.28 248.62 254.59 248.37 254.24 248.25 C 253.62 242.70 253.30 236.40 256.64 231.61 Z" />
<path fill="#4e5461" d=" M 172.45 232.76 C 173.13 232.61 174.49 232.31 175.17 232.16 L 175.45 233.12 C 176.54 237.74 178.01 242.26 179.62 246.72 C 178.87 246.71 177.37 246.68 176.62 246.66 C 175.37 241.98 173.80 237.40 172.45 232.76 Z" />
<path fill="#ece829" d=" M 302.15 232.56 C 303.67 235.77 304.72 239.34 307.29 241.92 C 307.07 246.22 305.67 250.33 304.38 254.41 C 299.10 269.85 291.01 284.92 278.42 295.63 C 278.47 295.21 278.57 294.38 278.62 293.97 C 279.90 292.21 281.41 290.65 282.89 289.08 C 280.29 289.35 277.69 289.62 275.09 289.90 C 279.03 285.88 283.09 281.91 286.20 277.18 C 295.14 263.93 301.20 248.62 302.15 232.56 Z" />
<path fill="#edb52f" d=" M 316.50 235.55 C 317.54 238.53 318.49 241.57 318.91 244.71 C 319.03 245.69 319.16 246.67 319.28 247.65 C 317.34 255.10 315.66 262.73 311.97 269.56 C 312.62 263.07 315.94 257.21 316.61 250.73 C 316.85 248.87 315.10 247.58 314.40 246.02 C 314.54 244.14 314.70 242.28 314.85 240.41 C 315.37 238.78 315.96 237.17 316.50 235.55 Z" />
<path fill="#d6953f" d=" M 322.47 236.19 C 323.28 238.61 324.19 241.00 325.01 243.43 C 324.80 244.94 324.56 246.46 324.22 247.96 C 323.02 249.33 321.75 250.63 320.48 251.93 C 320.05 250.51 319.63 249.09 319.28 247.65 C 319.16 246.67 319.03 245.69 318.91 244.71 C 319.39 243.60 319.87 242.49 320.34 241.37 C 321.06 239.65 321.77 237.92 322.47 236.19 Z" />
<path fill="#e0e06c" d=" M 248.87 246.33 C 246.79 246.43 246.52 243.75 248.17 242.89 C 249.36 242.99 250.51 243.28 251.61 243.77 C 250.73 244.66 249.82 245.52 248.87 246.33 Z" />
<path fill="#e8aa0b" d=" M 290.17 298.51 C 302.02 283.18 311.21 265.26 314.40 246.02 C 315.10 247.58 316.85 248.87 316.61 250.73 C 315.94 257.21 312.62 263.07 311.97 269.56 C 308.39 278.96 303.11 287.53 298.02 296.15 C 294.77 301.61 290.33 306.20 285.78 310.57 C 284.57 311.61 283.30 312.58 282.04 313.56 C 285.47 308.68 290.20 304.86 293.30 299.72 C 292.26 299.31 291.21 298.91 290.17 298.51 Z" />
<path fill="#dddd85" d=" M 248.34 248.18 C 248.84 248.61 248.84 248.61 248.34 248.18 Z" />
<path fill="#d2891b" d=" M 319.28 247.65 C 319.63 249.09 320.05 250.51 320.48 251.93 C 321.75 250.63 323.02 249.33 324.22 247.96 C 321.77 260.47 317.02 272.45 310.99 283.65 C 308.74 287.39 306.42 291.08 303.83 294.59 C 301.75 294.42 299.74 294.99 298.02 296.15 C 303.11 287.53 308.39 278.96 311.97 269.56 C 315.66 262.73 317.34 255.10 319.28 247.65 Z" />
<path fill="#dddd00" d=" M 232.54 253.32 C 235.13 254.38 234.79 257.79 236.18 259.85 C 242.28 262.96 249.31 263.29 256.03 262.95 C 259.25 264.26 262.27 266.56 265.87 266.58 C 269.17 266.18 272.15 264.45 274.91 262.68 C 277.84 263.41 280.65 264.53 283.36 265.84 C 280.74 269.61 277.88 273.23 274.52 276.37 C 269.19 279.84 263.40 282.99 257.02 283.93 C 249.99 284.85 243.15 281.58 238.00 277.01 C 233.66 269.85 234.95 261.10 232.54 253.32 Z" />
<path fill="#cecece" d=" M 422.55 283.65 C 424.76 274.81 427.25 266.02 430.32 257.44 C 430.70 268.50 430.53 279.58 430.24 290.64 C 427.55 295.70 424.89 300.81 423.40 306.37 C 421.20 313.13 420.51 320.30 417.94 326.94 C 415.20 334.47 414.22 342.79 409.37 349.41 C 406.23 353.55 404.58 359.45 399.21 361.29 C 395.64 362.54 392.90 365.94 389.00 366.07 C 357.33 366.08 325.66 365.96 294.00 366.13 C 291.72 366.08 289.48 365.61 287.27 365.12 C 289.32 363.75 291.33 362.30 293.29 360.79 C 298.49 356.63 303.18 351.83 307.36 346.64 C 335.88 347.07 364.41 346.63 392.93 346.89 C 395.04 346.80 397.26 347.05 399.30 346.35 C 401.75 343.80 404.36 341.44 407.11 339.22 C 410.78 329.68 414.91 320.19 417.02 310.14 C 418.83 301.30 421.18 292.57 422.55 283.65 Z" />
<path fill="#e8a90b" d=" M 185.32 261.97 C 186.97 263.89 188.44 265.96 190.15 267.83 C 195.88 268.60 201.65 267.09 207.42 267.39 L 207.79 268.34 C 209.84 273.49 211.16 278.88 212.63 284.21 C 213.57 289.19 214.18 294.22 214.40 299.29 C 210.53 298.58 207.21 296.20 203.32 295.61 C 200.66 295.31 198.34 293.97 196.29 292.35 C 195.22 289.04 194.10 285.75 192.91 282.48 C 190.40 275.64 187.81 268.82 185.32 261.97 Z" />
<path fill="#c68c19" d=" M 211.70 266.27 C 212.04 267.11 212.40 267.94 212.75 268.78 C 213.53 272.08 214.27 275.40 215.17 278.68 C 215.07 280.30 214.93 281.93 214.78 283.56 C 214.20 283.18 213.63 282.79 213.05 282.41 C 212.95 282.86 212.74 283.76 212.63 284.21 C 211.16 278.88 209.84 273.49 207.79 268.34 C 209.12 267.71 210.42 267.02 211.70 266.27 Z" />
<path fill="#e6e500" d=" M 224.96 266.68 C 226.02 269.08 227.14 271.46 228.18 273.88 C 228.50 273.66 229.14 273.23 229.46 273.01 C 229.73 274.29 230.07 275.55 230.40 276.82 C 232.93 276.98 235.46 277.05 238.00 277.01 C 243.15 281.58 249.99 284.85 257.02 283.93 C 263.40 282.99 269.19 279.84 274.52 276.37 C 278.38 277.05 282.29 277.25 286.20 277.18 C 283.09 281.91 279.03 285.88 275.09 289.90 C 277.69 289.62 280.29 289.35 282.89 289.08 C 281.41 290.65 279.90 292.21 278.62 293.97 C 278.57 294.38 278.47 295.21 278.42 295.63 L 278.36 296.04 C 267.47 302.56 253.62 306.71 241.32 301.76 C 236.07 300.02 232.45 295.60 227.56 293.20 C 224.94 292.01 224.57 288.90 224.03 286.42 C 224.22 280.27 222.88 274.24 221.95 268.20 C 223.00 269.65 224.14 271.04 225.40 272.33 C 225.32 270.44 225.18 268.55 224.96 266.68 Z" />
<path fill="#d7ad06" d=" M 212.75 268.78 C 213.72 270.13 214.76 271.45 215.80 272.77 C 215.92 272.01 216.18 270.51 216.31 269.75 C 217.14 272.79 218.20 275.77 219.00 278.83 C 220.04 285.16 219.80 291.71 221.68 297.89 C 222.44 300.32 223.20 302.75 224.05 305.15 C 219.58 302.67 220.10 296.72 218.49 292.49 C 217.55 287.85 216.56 283.21 215.17 278.68 C 214.27 275.40 213.53 272.08 212.75 268.78 Z" />
<path fill="#b48c0d" d=" M 215.17 278.68 C 216.56 283.21 217.55 287.85 218.49 292.49 C 218.20 293.93 217.90 295.37 217.58 296.81 C 217.31 297.92 217.03 299.03 216.74 300.14 C 216.26 298.79 215.78 297.43 215.30 296.08 C 215.27 296.93 215.22 298.61 215.20 299.46 L 214.40 299.29 C 214.18 294.22 213.57 289.19 212.63 284.21 C 212.74 283.76 212.95 282.86 213.05 282.41 C 213.63 282.79 214.20 283.18 214.78 283.56 C 214.93 281.93 215.07 280.30 215.17 278.68 Z" />
<path fill="#dbd600" d=" M 219.00 278.83 C 221.47 280.75 223.25 283.37 224.03 286.42 C 224.57 288.90 224.94 292.01 227.56 293.20 C 232.45 295.60 236.07 300.02 241.32 301.76 C 253.62 306.71 267.47 302.56 278.36 296.04 C 279.97 296.74 281.51 297.66 283.19 298.18 C 284.96 298.02 286.62 297.29 288.30 296.79 C 288.44 297.96 288.57 299.14 288.71 300.33 C 284.32 305.81 278.16 309.40 272.17 312.87 C 271.97 312.97 271.57 313.18 271.37 313.28 C 269.24 311.91 267.26 310.02 264.71 309.51 C 261.44 309.51 258.29 310.64 255.03 310.85 C 246.81 311.47 238.68 308.69 232.00 304.01 C 227.96 303.05 224.17 301.38 221.68 297.89 C 219.80 291.71 220.04 285.16 219.00 278.83 Z" />
<path fill="#e2a919" d=" M 303.83 294.59 C 306.42 291.08 308.74 287.39 310.99 283.65 C 312.99 289.42 309.41 294.85 307.46 300.08 C 304.62 304.38 301.55 308.69 297.40 311.83 C 293.93 312.64 290.61 315.34 286.92 314.24 L 288.18 313.27 C 294.72 308.27 299.15 301.23 303.83 294.59 Z" />
<path fill="#e1a305" d=" M 316.57 287.16 C 324.33 286.25 332.87 288.96 339.91 284.59 C 337.90 290.56 335.64 296.46 333.13 302.24 C 330.35 308.58 327.24 314.77 323.92 320.84 C 317.90 319.71 312.24 316.71 306.02 316.87 C 302.78 316.87 299.54 316.94 296.31 316.89 C 296.67 315.20 297.04 313.52 297.40 311.83 C 301.55 308.69 304.62 304.38 307.46 300.08 C 312.29 300.37 312.99 295.21 313.48 291.62 C 314.47 291.23 315.46 290.84 316.46 290.46 C 316.50 289.36 316.53 288.26 316.57 287.16 Z" />
<path fill="#c6c6c6" d=" M 423.40 306.37 C 424.89 300.81 427.55 295.70 430.24 290.64 C 430.42 303.10 430.29 315.57 429.87 328.02 C 429.98 331.21 427.76 333.64 426.01 336.05 C 422.06 341.17 420.13 347.44 416.88 352.97 C 414.76 357.11 411.27 360.38 409.43 364.67 C 407.99 367.92 405.28 370.34 402.91 372.90 C 398.58 377.32 393.93 381.81 387.98 383.93 C 378.33 387.17 368.16 388.96 357.97 388.82 C 289.63 388.78 221.30 388.84 152.97 388.80 C 144.16 388.86 135.48 387.09 127.03 384.74 C 119.82 382.60 113.67 377.83 108.91 372.11 C 99.84 363.91 93.75 353.13 86.94 343.12 C 85.76 341.29 83.64 340.53 81.80 339.57 C 81.67 325.40 81.78 311.22 82.07 297.05 C 84.66 300.60 87.32 304.26 88.34 308.62 C 89.97 315.22 91.93 321.74 93.49 328.36 C 94.58 333.07 96.81 337.39 98.24 341.98 C 100.90 349.80 105.62 356.73 111.01 362.93 C 112.97 365.25 116.01 366.04 118.57 367.48 C 122.19 369.42 125.71 372.12 130.03 371.97 C 158.01 371.90 186.00 371.88 213.98 371.97 C 218.30 372.06 222.72 372.28 226.89 370.93 C 245.97 381.21 269.83 376.73 287.27 365.12 C 289.48 365.61 291.72 366.08 294.00 366.13 C 325.66 365.96 357.33 366.08 389.00 366.07 C 392.90 365.94 395.64 362.54 399.21 361.29 C 404.58 359.45 406.23 353.55 409.37 349.41 C 414.22 342.79 415.20 334.47 417.94 326.94 C 420.51 320.30 421.20 313.13 423.40 306.37 Z" />
<path fill="#d5a700" d=" M 196.29 292.35 C 198.34 293.97 200.66 295.31 203.32 295.61 C 207.21 296.20 210.53 298.58 214.40 299.29 L 215.20 299.46 C 215.05 303.50 216.59 307.28 218.26 310.88 C 218.18 311.30 218.03 312.14 217.95 312.57 C 212.49 310.65 206.89 308.76 201.02 308.86 C 199.65 303.30 198.14 297.77 196.29 292.35 Z" />
<path fill="#abad00" d=" M 218.49 292.49 C 220.10 296.72 219.58 302.67 224.05 305.15 C 228.90 310.24 234.68 314.73 241.63 316.45 C 251.50 319.16 262.13 317.32 271.37 313.28 C 271.57 313.18 271.97 312.97 272.17 312.87 C 273.32 313.87 274.49 314.88 275.65 315.88 C 273.16 317.11 270.87 318.70 268.83 320.59 C 257.40 324.40 243.82 325.41 233.14 318.90 C 225.50 313.80 219.32 305.98 217.58 296.81 C 217.90 295.37 218.20 293.93 218.49 292.49 Z" />
<path fill="#b4860a" d=" M 298.02 296.15 C 299.74 294.99 301.75 294.42 303.83 294.59 C 299.15 301.23 294.72 308.27 288.18 313.27 C 287.37 312.37 286.58 311.47 285.78 310.57 C 290.33 306.20 294.77 301.61 298.02 296.15 Z" />
<path fill="#958900" d=" M 215.30 296.08 C 215.78 297.43 216.26 298.79 216.74 300.14 C 217.03 299.03 217.31 297.92 217.58 296.81 C 219.32 305.98 225.50 313.80 233.14 318.90 C 243.82 325.41 257.40 324.40 268.83 320.59 C 273.60 319.05 278.22 316.87 282.04 313.56 C 283.30 312.58 284.57 311.61 285.78 310.57 C 286.58 311.47 287.37 312.37 288.18 313.27 L 286.92 314.24 C 282.27 317.54 277.60 320.89 272.38 323.25 C 262.76 326.86 252.27 328.96 242.04 326.95 C 232.31 325.27 223.25 319.51 218.26 310.88 C 216.59 307.28 215.05 303.50 215.20 299.46 C 215.22 298.61 215.27 296.93 215.30 296.08 Z" />
<path fill="#cecc00" d=" M 221.68 297.89 C 224.17 301.38 227.96 303.05 232.00 304.01 C 238.68 308.69 246.81 311.47 255.03 310.85 C 258.29 310.64 261.44 309.51 264.71 309.51 C 267.26 310.02 269.24 311.91 271.37 313.28 C 262.13 317.32 251.50 319.16 241.63 316.45 C 234.68 314.73 228.90 310.24 224.05 305.15 C 223.20 302.75 222.44 300.32 221.68 297.89 Z" />
<path fill="#bfaa00" d=" M 290.17 298.51 C 291.21 298.91 292.26 299.31 293.30 299.72 C 290.20 304.86 285.47 308.68 282.04 313.56 C 278.22 316.87 273.60 319.05 268.83 320.59 C 270.87 318.70 273.16 317.11 275.65 315.88 C 274.49 314.88 273.32 313.87 272.17 312.87 C 278.16 309.40 284.32 305.81 288.71 300.33 C 289.08 299.87 289.80 298.96 290.17 298.51 Z" />
<path fill="#c4a000" d=" M 201.02 308.86 C 206.89 308.76 212.49 310.65 217.95 312.57 C 218.03 312.14 218.18 311.30 218.26 310.88 C 223.25 319.51 232.31 325.27 242.04 326.95 C 252.27 328.96 262.76 326.86 272.38 323.25 C 282.95 325.13 294.10 323.80 304.38 327.51 C 308.62 328.64 313.05 328.69 317.41 328.50 C 317.49 329.48 317.58 330.46 317.67 331.45 C 314.83 335.93 312.04 340.44 308.87 344.70 C 297.97 341.39 286.53 339.60 275.16 338.74 C 271.34 338.23 267.83 336.37 263.97 336.07 C 256.78 335.67 249.93 333.23 242.81 332.31 C 236.42 330.20 229.47 332.45 223.20 329.81 C 217.12 327.34 210.45 327.56 204.10 326.28 C 203.77 323.10 203.28 319.95 202.66 316.82 C 202.19 314.15 201.62 311.50 201.02 308.86 Z" />
<path fill="#d4a000" d=" M 286.92 314.24 C 290.61 315.34 293.93 312.64 297.40 311.83 C 297.04 313.52 296.67 315.20 296.31 316.89 C 299.54 316.94 302.78 316.87 306.02 316.87 C 312.24 316.71 317.90 319.71 323.92 320.84 C 321.91 324.42 319.83 327.96 317.67 331.45 C 317.58 330.46 317.49 329.48 317.41 328.50 C 313.05 328.69 308.62 328.64 304.38 327.51 C 294.10 323.80 282.95 325.13 272.38 323.25 C 277.60 320.89 282.27 317.54 286.92 314.24 Z" />
<path fill="#b59e00" d=" M 204.10 326.28 C 210.45 327.56 217.12 327.34 223.20 329.81 C 229.47 332.45 236.42 330.20 242.81 332.31 C 249.93 333.23 256.78 335.67 263.97 336.07 C 267.83 336.37 271.34 338.23 275.16 338.74 C 286.53 339.60 297.97 341.39 308.87 344.70 C 308.49 345.18 307.74 346.16 307.36 346.64 C 303.18 351.83 298.49 356.63 293.29 360.79 C 292.96 360.42 292.30 359.69 291.97 359.33 C 285.86 362.01 277.09 361.06 273.57 354.80 C 272.59 355.89 271.62 356.98 270.66 358.08 C 268.06 356.95 265.58 355.59 263.24 354.00 C 264.50 347.92 260.93 341.29 254.93 339.45 C 249.43 337.44 243.22 340.30 240.30 345.16 C 236.53 344.17 232.83 342.97 229.06 342.01 C 221.23 339.94 212.76 343.16 205.23 339.56 C 204.54 335.16 204.50 330.70 204.10 326.28 Z" />
<path fill="#9e9c00" d=" M 205.23 339.56 C 212.76 343.16 221.23 339.94 229.06 342.01 C 232.83 342.97 236.53 344.17 240.30 345.16 C 239.10 348.31 238.27 351.89 239.68 355.13 C 241.78 361.49 249.82 365.30 255.94 362.25 C 259.54 360.82 261.80 357.44 263.24 354.00 C 265.58 355.59 268.06 356.95 270.66 358.08 C 271.62 356.98 272.59 355.89 273.57 354.80 C 277.09 361.06 285.86 362.01 291.97 359.33 C 292.30 359.69 292.96 360.42 293.29 360.79 C 291.33 362.30 289.32 363.75 287.27 365.12 C 269.83 376.73 245.97 381.21 226.89 370.93 C 217.96 366.08 210.99 357.87 207.54 348.32 C 206.56 345.46 205.80 342.53 205.23 339.56 Z" />
<path fill="#424243" d=" M 240.30 345.16 C 243.22 340.30 249.43 337.44 254.93 339.45 C 260.93 341.29 264.50 347.92 263.24 354.00 C 261.80 357.44 259.54 360.82 255.94 362.25 C 249.82 365.30 241.78 361.49 239.68 355.13 C 238.27 351.89 239.10 348.31 240.30 345.16 Z" />
<path fill="#696867" d=" M 247.12 345.09 C 250.24 345.11 255.43 343.37 256.94 347.07 C 256.86 350.26 258.53 355.15 254.82 356.84 C 251.68 356.93 247.05 358.24 245.36 354.68 C 245.19 351.53 243.96 347.15 247.12 345.09 Z" />
<path fill="#434343" d=" M 246.89 346.86 C 249.74 346.53 253.12 345.52 255.67 347.26 C 256.24 349.80 255.93 352.43 255.87 355.02 C 252.93 355.94 249.76 356.00 246.81 355.12 C 246.63 352.36 246.66 349.60 246.89 346.86 Z" />
<path fill="#a1a1a1" d=" M 420.01 364.00 C 423.24 360.20 428.33 358.75 431.55 354.95 C 431.36 363.45 429.45 371.86 426.17 379.70 L 425.84 379.56 C 421.42 376.66 417.03 381.05 413.84 383.79 C 405.06 392.09 394.49 398.92 382.61 401.67 C 373.89 403.62 364.93 404.79 355.99 404.19 C 348.99 403.62 342.00 404.50 335.00 404.27 C 275.98 404.21 216.96 404.27 157.94 404.26 C 145.52 404.01 132.78 403.54 121.08 398.91 C 114.40 396.03 108.16 392.08 102.79 387.17 C 100.32 384.96 98.03 382.54 95.33 380.60 C 92.74 378.67 89.40 378.48 86.31 378.13 L 85.95 378.09 C 83.90 372.29 81.97 366.34 81.64 360.15 C 81.64 359.61 81.64 358.52 81.64 357.98 C 84.55 361.09 88.86 362.22 91.89 365.18 C 97.47 369.91 100.99 376.69 107.08 380.86 C 113.26 385.10 119.21 389.93 126.36 392.49 C 138.38 396.88 151.39 397.15 164.05 397.20 C 229.37 397.19 294.69 397.16 360.01 397.17 C 372.57 396.35 385.80 394.75 396.44 387.43 C 406.15 381.69 412.62 372.23 420.01 364.00 Z" />
<path fill="#898989" d=" M 86.31 378.13 C 89.40 378.48 92.74 378.67 95.33 380.60 C 98.03 382.54 100.32 384.96 102.79 387.17 C 108.16 392.08 114.40 396.03 121.08 398.91 C 132.78 403.54 145.52 404.01 157.94 404.26 C 216.96 404.27 275.98 404.21 335.00 404.27 C 342.00 404.50 348.99 403.62 355.99 404.19 C 364.93 404.79 373.89 403.62 382.61 401.67 C 394.49 398.92 405.06 392.09 413.84 383.79 C 417.03 381.05 421.42 376.66 425.84 379.56 C 423.16 386.04 419.12 391.97 414.20 396.96 C 412.68 398.53 411.11 400.04 409.44 401.45 L 408.99 401.66 C 407.53 402.31 406.11 403.07 404.79 403.97 C 396.07 410.06 385.68 413.65 375.11 414.60 C 369.42 415.07 363.71 414.95 358.01 414.96 C 287.03 414.94 216.05 414.98 145.07 414.94 C 134.69 415.04 124.28 412.81 114.98 408.16 C 111.03 406.41 107.72 403.56 103.87 401.64 L 103.33 401.28 C 101.48 400.02 99.86 398.46 98.34 396.83 C 93.31 391.35 89.00 385.09 86.31 378.13 Z" />
<path fill="#e6e6e6" d=" M 98.34 396.83 C 99.86 398.46 101.48 400.02 103.33 401.28 C 103.31 401.82 103.28 402.88 103.26 403.42 C 98.85 405.26 91.69 406.86 92.35 413.04 C 96.75 415.36 100.89 418.33 105.81 419.48 C 116.26 422.82 127.24 423.72 138.06 425.16 C 155.35 426.62 172.68 427.54 190.03 427.71 C 208.00 428.75 226.01 428.59 244.00 428.65 C 266.67 428.70 289.35 428.64 312.03 428.16 C 322.35 427.35 332.72 427.84 343.03 426.85 C 358.17 426.53 373.26 425.05 388.29 423.30 C 399.26 421.76 410.90 420.03 419.67 412.67 C 420.61 411.66 421.38 409.88 420.22 408.75 C 417.42 405.31 412.94 404.00 409.44 401.45 C 411.11 400.04 412.68 398.53 414.20 396.96 C 417.36 400.34 422.35 400.00 426.38 401.66 C 430.85 402.98 434.09 406.51 437.15 409.84 C 435.27 412.67 433.80 416.18 430.50 417.64 C 419.95 422.53 408.36 424.26 397.00 426.21 C 392.32 426.52 387.68 427.38 382.98 427.35 C 377.58 427.24 372.30 428.84 366.89 428.53 C 359.95 429.22 352.99 429.55 346.06 430.27 C 337.70 430.27 329.33 430.24 321.02 431.24 C 289.67 431.34 258.31 431.59 226.95 431.40 C 213.32 431.18 199.66 431.75 186.06 430.76 C 179.69 431.43 173.37 430.12 167.00 430.32 C 161.65 430.53 156.40 429.08 151.04 429.43 C 146.99 429.69 143.00 428.93 139.00 428.48 C 129.33 428.40 119.76 426.87 110.16 425.90 C 98.00 423.40 84.57 421.90 75.06 413.07 C 76.15 410.91 76.91 408.46 78.71 406.77 C 84.41 402.48 91.43 400.64 98.38 399.64 C 98.37 398.70 98.35 397.76 98.34 396.83 Z" />
<path fill="#313131" d=" M 103.87 401.64 C 107.72 403.56 111.03 406.41 114.98 408.16 C 124.28 412.81 134.69 415.04 145.07 414.94 C 216.05 414.98 287.03 414.94 358.01 414.96 C 363.71 414.95 369.42 415.07 375.11 414.60 C 385.68 413.65 396.07 410.06 404.79 403.97 C 406.11 403.07 407.53 402.31 408.99 401.66 C 407.99 402.30 407.00 402.97 406.03 403.66 C 398.44 409.29 389.88 413.97 380.47 415.58 C 373.56 415.79 366.69 416.72 359.77 416.65 C 347.52 415.81 335.22 416.66 322.99 417.35 C 281.33 417.72 239.67 417.66 198.02 417.43 C 191.34 417.48 184.71 416.39 178.03 416.54 C 170.09 416.69 162.15 415.85 154.23 416.66 C 147.79 416.44 141.31 416.60 134.93 415.49 C 129.67 414.80 124.71 412.83 119.60 411.54 C 115.47 409.73 111.72 407.21 108.02 404.66 C 106.63 403.65 105.26 402.63 103.87 401.64 Z" />
<path fill="#c8c8c8" d=" M 103.33 401.28 L 103.87 401.64 C 105.26 402.63 106.63 403.65 108.02 404.66 C 106.48 406.44 104.63 408.02 103.43 410.08 C 103.85 414.20 108.54 415.81 111.94 416.93 C 125.90 420.94 140.41 423.12 154.92 423.62 C 167.87 424.69 180.84 425.68 193.84 425.60 C 201.25 425.45 208.61 426.53 216.01 426.46 C 243.86 426.53 271.71 426.64 299.55 426.33 C 310.33 425.28 321.17 425.91 331.97 425.23 C 339.62 424.39 347.34 424.68 354.98 423.73 C 370.59 423.17 385.99 420.30 401.19 416.88 C 404.59 415.80 407.92 414.09 410.41 411.50 C 410.67 408.27 407.59 406.13 406.03 403.66 C 407.00 402.97 407.99 402.30 408.99 401.66 L 409.44 401.45 C 412.94 404.00 417.42 405.31 420.22 408.75 C 421.38 409.88 420.61 411.66 419.67 412.67 C 410.90 420.03 399.26 421.76 388.29 423.30 C 373.26 425.05 358.17 426.53 343.03 426.85 C 332.72 427.84 322.35 427.35 312.03 428.16 C 289.35 428.64 266.67 428.70 244.00 428.65 C 226.01 428.59 208.00 428.75 190.03 427.71 C 172.68 427.54 155.35 426.62 138.06 425.16 C 127.24 423.72 116.26 422.82 105.81 419.48 C 100.89 418.33 96.75 415.36 92.35 413.04 C 91.69 406.86 98.85 405.26 103.26 403.42 C 103.28 402.88 103.31 401.82 103.33 401.28 Z" />
<path fill="#a1a1a1" d=" M 380.47 415.58 C 389.88 413.97 398.44 409.29 406.03 403.66 C 407.59 406.13 410.67 408.27 410.41 411.50 C 407.92 414.09 404.59 415.80 401.19 416.88 C 385.99 420.30 370.59 423.17 354.98 423.73 C 347.34 424.68 339.62 424.39 331.97 425.23 C 321.17 425.91 310.33 425.28 299.55 426.33 C 271.71 426.64 243.86 426.53 216.01 426.46 C 208.61 426.53 201.25 425.45 193.84 425.60 C 180.84 425.68 167.87 424.69 154.92 423.62 C 140.41 423.12 125.90 420.94 111.94 416.93 C 108.54 415.81 103.85 414.20 103.43 410.08 C 104.63 408.02 106.48 406.44 108.02 404.66 C 111.72 407.21 115.47 409.73 119.60 411.54 C 120.71 412.69 121.67 414.18 123.31 414.65 C 135.73 419.16 149.04 419.82 162.03 421.48 C 171.31 422.81 180.69 422.22 189.98 423.31 C 202.99 423.85 216.04 423.13 229.01 424.33 C 247.69 424.40 266.38 424.49 285.06 424.25 C 299.14 422.82 313.34 424.33 327.41 422.74 C 341.68 422.39 355.92 420.94 370.03 418.74 C 373.61 418.15 377.66 418.28 380.47 415.58 Z" />
<path fill="#717171" d=" M 119.60 411.54 C 124.71 412.83 129.67 414.80 134.93 415.49 C 141.31 416.60 147.79 416.44 154.23 416.66 C 164.65 419.03 175.43 419.05 186.04 419.86 C 194.45 421.02 202.99 420.05 211.40 421.34 C 240.53 421.76 269.68 421.66 298.81 421.36 C 306.78 420.29 314.82 420.72 322.82 420.36 C 335.11 418.94 347.63 419.27 359.77 416.65 C 366.69 416.72 373.56 415.79 380.47 415.58 C 377.66 418.28 373.61 418.15 370.03 418.74 C 355.92 420.94 341.68 422.39 327.41 422.74 C 313.34 424.33 299.14 422.82 285.06 424.25 C 266.38 424.49 247.69 424.40 229.01 424.33 C 216.04 423.13 202.99 423.85 189.98 423.31 C 180.69 422.22 171.31 422.81 162.03 421.48 C 149.04 419.82 135.73 419.16 123.31 414.65 C 121.67 414.18 120.71 412.69 119.60 411.54 Z" />
<path fill="#484848" d=" M 154.23 416.66 C 162.15 415.85 170.09 416.69 178.03 416.54 C 184.71 416.39 191.34 417.48 198.02 417.43 C 239.67 417.66 281.33 417.72 322.99 417.35 C 335.22 416.66 347.52 415.81 359.77 416.65 C 347.63 419.27 335.11 418.94 322.82 420.36 C 314.82 420.72 306.78 420.29 298.81 421.36 C 269.68 421.66 240.53 421.76 211.40 421.34 C 202.99 420.05 194.45 421.02 186.04 419.86 C 175.43 419.05 164.65 419.03 154.23 416.66 Z" />
</svg>
